<?xml version="1.0" encoding="UTF-8" standalone="no"?>
<svg xmlns:dc="http://purl.org/dc/elements/1.1/" xmlns:cc="http://creativecommons.org/ns#"
    xmlns:rdf="http://www.w3.org/1999/02/22-rdf-syntax-ns#" xmlns:svg="http://www.w3.org/2000/svg"
    xmlns="http://www.w3.org/2000/svg" viewBox="0 0 1000 666.66669" height="666.66669" width="1000" xml:space="preserve"
    id="svg2" version="1.1">
    <metadata id="metadata8">
        <rdf:RDF>
            <cc:Work rdf:about="">
                <dc:format>image/svg+xml</dc:format>
                <dc:type rdf:resource="http://purl.org/dc/dcmitype/StillImage" />
            </cc:Work>
        </rdf:RDF>
    </metadata>
    <defs id="defs6" />
    <g transform="matrix(1.3333333,0,0,-1.3333333,0,666.66667)" id="g10">
        <g transform="scale(0.1)" id="g12">

            <path id="path36" style="fill:#272a3d;fill-opacity:1;fill-rule:nonzero;stroke:none"
                d="m 774.082,1611.07 -17.629,45.7 c -0.527,1.37 -1.074,2.94 -1.652,4.75 -0.574,1.81 -1.121,3.72 -1.649,5.76 -1.093,-4.23 -2.218,-7.76 -3.371,-10.58 l -17.636,-45.63 -4.235,-10.97 -10.5,-27.12 c -0.312,-0.94 -0.914,-1.78 -1.805,-2.51 -0.886,-0.74 -1.992,-1.1 -3.292,-1.1 h -11.758 l 44.922,112.34 h 15.359 l 44.922,-112.34 H 794 c -1.363,0 -2.461,0.33 -3.301,1.02 -0.836,0.67 -1.461,1.54 -1.879,2.59 l -10.504,27.12 -4.234,10.97" />
            <path id="path38" style="fill:#272a3d;fill-opacity:1;fill-rule:nonzero;stroke:none"
                d="m 988.953,1581.44 c 4.34,0 8.074,0.49 11.217,1.49 3.13,0.99 5.71,2.4 7.72,4.2 2,1.79 3.49,3.94 4.43,6.42 0.94,2.48 1.41,5.22 1.41,8.19 0,5.81 -2.07,10.39 -6.2,13.75 -4.13,3.38 -10.323,5.07 -18.577,5.07 h -24.305 v -39.12 z m -24.305,88.27 v -38.34 h 20.071 c 4.285,0 8.011,0.48 11.172,1.42 3.16,0.94 5.779,2.24 7.839,3.92 2.06,1.67 3.6,3.69 4.58,6.07 1,2.37 1.5,4.98 1.5,7.8 0,6.64 -1.99,11.49 -5.97,14.54 -3.965,3.06 -10.133,4.59 -18.492,4.59 v 12 c 6.898,0 12.847,-0.68 17.832,-2.05 4.99,-1.35 9.09,-3.29 12.31,-5.8 3.21,-2.5 5.58,-5.57 7.09,-9.2 1.52,-3.64 2.27,-7.72 2.27,-12.27 0,-2.77 -0.42,-5.43 -1.28,-7.97 -0.87,-2.52 -2.16,-4.89 -3.89,-7.08 -1.72,-2.2 -3.9,-4.17 -6.54,-5.93 -2.65,-1.75 -5.74,-3.17 -9.3,-4.26 8.27,-1.58 14.47,-4.51 18.63,-8.83 4.15,-4.31 6.23,-9.96 6.23,-16.97 0,-4.75 -0.88,-9.09 -2.62,-13 -1.76,-3.93 -4.32,-7.3 -7.69,-10.12 -3.37,-2.82 -7.51,-5.01 -12.43,-6.55 -4.91,-1.55 -10.499,-2.31 -16.769,-2.31 H 949.52 v 112.34 c 12.332,0 15.128,-12 15.128,-12" />
            <path id="path40" style="fill:#272a3d;fill-opacity:1;fill-rule:nonzero;stroke:none"
                d="m 1263.96,1592.58 c 0.83,0 1.56,-0.35 2.19,-1.02 l 6.04,-6.5 c -4.6,-5.35 -10.19,-9.5 -16.74,-12.48 -6.56,-2.97 -14.49,-4.47 -23.79,-4.47 -8.05,0 -15.37,1.4 -21.95,4.2 -6.59,2.78 -12.21,6.72 -16.86,11.76 -4.65,5.04 -8.25,11.08 -10.82,18.14 -2.56,7.06 -3.84,14.82 -3.84,23.28 0,8.47 1.34,16.24 4,23.29 2.66,7.05 6.41,13.12 11.25,18.19 4.83,5.07 10.62,8.99 17.37,11.8 6.74,2.8 14.19,4.19 22.34,4.19 7.99,0 15.05,-1.28 21.16,-3.84 6.12,-2.56 11.5,-6.04 16.15,-10.43 l -5.01,-6.97 c -0.32,-0.53 -0.73,-0.95 -1.22,-1.29 -0.5,-0.35 -1.16,-0.52 -2,-0.52 -0.94,0 -2.09,0.52 -3.45,1.53 -1.36,1.02 -3.13,2.16 -5.33,3.41 -2.19,1.25 -4.94,2.39 -8.23,3.41 -3.29,1.02 -7.35,1.52 -12.15,1.52 -5.8,0 -11.11,-1 -15.92,-3.02 -4.8,-2.01 -8.95,-4.92 -12.42,-8.73 -3.48,-3.81 -6.18,-8.46 -8.11,-13.95 -1.94,-5.5 -2.91,-11.68 -2.91,-18.59 0,-7 1.01,-13.24 3.02,-18.73 2.01,-5.49 4.76,-10.12 8.24,-13.91 3.47,-3.8 7.57,-6.68 12.3,-8.66 4.73,-2 9.84,-2.99 15.33,-2.99 3.34,0 6.36,0.2 9.05,0.59 2.69,0.39 5.18,1.01 7.45,1.85 2.27,0.83 4.39,1.89 6.35,3.17 1.96,1.28 3.9,2.82 5.84,4.58 0.88,0.79 1.78,1.19 2.67,1.19" />
            <path id="path42" style="fill:#272a3d;fill-opacity:1;fill-rule:nonzero;stroke:none"
                d="m 1439.24,1581.68 h 26.73 c 6.06,0 11.55,0.98 16.46,2.98 4.92,1.98 9.09,4.84 12.55,8.58 3.44,3.73 6.11,8.33 7.99,13.76 1.88,5.44 2.82,11.6 2.82,18.49 0,6.91 -0.94,13.07 -2.82,18.51 -1.88,5.43 -4.55,10.03 -7.99,13.8 -3.46,3.76 -7.63,6.63 -12.55,8.62 -4.91,1.99 -10.4,2.97 -16.46,2.97 h -26.73 c 0,0 -15.21,0.53 -15.21,12.32 h 41.94 c 8.26,0 15.79,-1.35 22.62,-4.04 6.81,-2.7 12.66,-6.5 17.51,-11.45 4.87,-4.94 8.63,-10.86 11.3,-17.75 2.66,-6.9 3.99,-14.56 3.99,-22.98 0,-8.4 -1.33,-16.06 -3.99,-22.96 -2.67,-6.91 -6.43,-12.81 -11.3,-17.72 -4.85,-4.91 -10.7,-8.72 -17.51,-11.4 -6.83,-2.7 -14.36,-4.04 -22.62,-4.04 h -41.94 c 0,12.27 15.21,12.31 15.21,12.31" />
            <path id="path44" style="fill:#272a3d;fill-opacity:1;fill-rule:nonzero;stroke:none"
                d="m 1746.77,1581.75 -0.08,-12.38 h -69.22 v 112.34 h 69.22 v -12.4 h -54.01 V 1632 h 43.74 v -11.91 h -43.74 v -38.34 h 54.09" />
            <path id="path46" style="fill:#272a3d;fill-opacity:1;fill-rule:nonzero;stroke:none"
                d="m 1902.21,1681.71 h 69.23 v -12.4 h -54.01 c 0,0 -15.22,4.3 -15.22,12.4 z m 15.22,-25.93 v -25.73 h 46.17 v -12.4 h -46.17 v -48.28 h -15.22 v 86.41 h 15.22" />
            <path id="path48" style="fill:#272a3d;fill-opacity:1;fill-rule:nonzero;stroke:none"
                d="m 2212.73,1598.36 v -18.1 c -5.65,-4.07 -11.67,-7.12 -18.07,-9.13 -6.4,-2.01 -13.42,-3.02 -21.05,-3.02 -9.04,0 -17.19,1.4 -24.46,4.2 -7.26,2.78 -13.47,6.72 -18.62,11.76 -5.14,5.04 -9.1,11.08 -11.87,18.14 -2.77,7.06 -4.15,14.82 -4.15,23.28 0,8.58 1.34,16.38 4.03,23.45 2.69,7.05 6.52,13.11 11.49,18.15 4.96,5.04 11,8.94 18.11,11.72 7.1,2.77 15.04,4.15 23.83,4.15 4.44,0 8.56,-0.33 12.38,-0.98 3.82,-0.65 7.35,-1.59 10.58,-2.82 3.25,-1.23 6.25,-2.73 9.02,-4.48 2.77,-1.74 5.36,-3.72 7.76,-5.91 l -4.31,-6.9 c -0.68,-1.04 -1.56,-1.71 -2.63,-2 -1.07,-0.28 -2.26,-0.04 -3.56,0.75 -1.26,0.72 -2.69,1.62 -4.31,2.66 -1.63,1.05 -3.6,2.06 -5.93,3.02 -2.32,0.97 -5.07,1.79 -8.22,2.47 -3.16,0.68 -6.92,1.01 -11.25,1.01 -6.33,0 -12.05,-1.02 -17.17,-3.08 -5.12,-2.07 -9.48,-5.03 -13.09,-8.87 -3.61,-3.84 -6.38,-8.5 -8.31,-13.96 -1.94,-5.45 -2.9,-11.59 -2.9,-18.38 0,-7.05 1,-13.36 3.01,-18.93 2.02,-5.57 4.89,-10.28 8.63,-14.18 3.73,-3.9 8.27,-6.86 13.6,-8.91 5.33,-2.03 11.31,-3.04 17.95,-3.04 5.23,0 9.86,0.57 13.92,1.75 4.04,1.18 8,2.82 11.88,4.91 v 11.27 m 0,13.42 h -17.49 c -1,0 -1.79,0.29 -2.39,0.86 -0.6,0.57 -0.9,1.28 -0.9,2.11 v 8.64 h 34.49 c 0,-6.94 -13.71,-11.61 -13.71,-11.61" />
            <path id="path50" style="fill:#272a3d;fill-opacity:1;fill-rule:nonzero;stroke:none"
                d="m 2432.75,1620.49 h -34.48 c 0,6.12 9.43,11.12 9.43,11.12 h 25.05 z m -47.32,0 v -51.12 h -15.21 v 112.34 h 15.21 v -50.1 m 60.59,0 v 50.1 h 15.21 v -112.34 h -15.21 v 51.12" />
            <path id="path52" style="fill:#272a3d;fill-opacity:1;fill-rule:nonzero;stroke:none"
                d="m 2639.34,1569.37 h -15.21 v 112.34 h 15.21 v -112.34" />
            <path id="path54" style="fill:#272a3d;fill-opacity:1;fill-rule:nonzero;stroke:none"
                d="m 2836.41,1608.17 c 0,-6.27 -0.77,-11.88 -2.31,-16.85 -1.54,-4.97 -3.81,-9.16 -6.82,-12.58 -3,-3.42 -6.7,-6.06 -11.09,-7.88 -4.39,-1.83 -9.43,-2.75 -15.13,-2.75 -5.17,0 -10.45,0.73 -15.83,2.2 0.1,1.52 0.23,3.02 0.39,4.5 0.15,1.5 0.28,2.97 0.39,4.43 0.1,0.89 0.43,1.62 0.98,2.16 0.55,0.55 1.4,0.83 2.55,0.83 0.94,0 2.18,-0.24 3.72,-0.71 1.54,-0.47 3.62,-0.7 6.23,-0.7 3.45,0 6.54,0.51 9.25,1.56 2.72,1.04 4.99,2.68 6.82,4.86 1.83,2.2 3.23,5 4.2,8.43 0.96,3.42 1.45,7.48 1.45,12.19 v 73.85 h 15.2 v -73.54" />
            <path id="path56" style="fill:#272a3d;fill-opacity:1;fill-rule:nonzero;stroke:none"
                d="m 3040.65,1651.07 23.8,27.03 c 1.04,1.35 2.15,2.3 3.3,2.81 1.14,0.53 2.55,0.8 4.23,0.8 h 12.85 l -34.74,-39.26 m -14.36,-13.09 c 2.05,-1.38 2.88,-2.28 4.03,-3.2 1.14,-0.91 2.27,-2.1 3.37,-3.57 l 44.68,-53.22 h -13.17 c -0.99,0 -1.84,0.06 -2.54,0.2 -0.71,0.12 -1.33,0.34 -1.84,0.62 -0.53,0.29 -0.99,0.64 -1.38,1.02 -0.39,0.39 -0.77,0.85 -1.13,1.37 l -38.73,44.6 c -1.05,1.31 -2.17,2.24 -3.37,2.79 -1.21,0.54 -3.04,0.82 -5.49,0.82 h -6.9 v -51.42 h -15.13 v 112.34 h 15.13 v -49.24 h 5.73 c 1.98,0 5.83,0.03 9.65,-0.93 3.82,-0.96 7.09,-2.18 7.09,-2.18" />
            <path id="path58" style="fill:#272a3d;fill-opacity:1;fill-rule:nonzero;stroke:none"
                d="m 3299.94,1582.15 v -12.78 h -63.74 v 112.34 h 15.13 v -99.56 h 48.61" />
            <path id="path60" style="fill:#272a3d;fill-opacity:1;fill-rule:nonzero;stroke:none"
                d="m 3489.71,1632.01 c 0,0 13.01,-24.59 13.61,-25.95 0.61,-1.37 1.17,-2.74 1.69,-4.16 0.52,1.42 1.07,2.81 1.65,4.19 0.57,1.39 1.2,2.72 1.88,3.97 l 38.1,69.06 c 0.63,1.2 1.32,1.93 2.08,2.2 0.75,0.26 1.81,0.39 3.17,0.39 h 11.21 v -112.34 h -13.33 v 82.55 c 0,1.09 0.05,2.27 0.12,3.52 0.08,1.26 0.17,2.54 0.27,3.84 l -38.56,-70.24 c -1.21,-2.34 -3.04,-3.52 -5.5,-3.52 h -2.19 c -2.46,0 -4.28,1.18 -5.49,3.52 l -17.32,33.2 m -22.03,37.36 c 0.32,-2.78 0.48,-5.34 0.48,-7.68 v -82.55 h -13.34 v 112.34 c 8.26,0 12.86,-22.11 12.86,-22.11" />
            <path id="path62" style="fill:#272a3d;fill-opacity:1;fill-rule:nonzero;stroke:none"
                d="m 3780.25,1625.53 23.83,-30.99 c -0.11,1.35 -0.21,2.67 -0.28,3.95 -0.07,1.28 -0.12,2.49 -0.12,3.65 v 79.57 h 13.33 v -112.34 h -7.6 c -1.2,0 -2.21,0.21 -3.02,0.62 -0.81,0.43 -1.61,1.13 -2.39,2.13 l -30.7,40 m -34.29,44.65 c 0.1,-1.29 0.19,-2.58 0.23,-3.83 0.06,-1.26 0.09,-2.44 0.09,-3.53 v -80.04 h -13.34 v 112.34 c 11.48,0 13.02,-24.94 13.02,-24.94" />
            <path id="path64" style="fill:#272a3d;fill-opacity:1;fill-rule:nonzero;stroke:none"
                d="m 4044.74,1584.38 c 4.91,2.01 9.08,4.91 12.54,8.7 3.45,3.79 6.11,8.42 8,13.88 1.88,5.46 2.82,11.64 2.82,18.53 0,6.91 -0.94,13.09 -2.82,18.59 -1.89,5.49 -4.55,10.13 -8,13.91 -3.46,3.79 -7.63,6.7 -12.54,8.75 l 6.15,11.98 c 6.82,-2.82 12.66,-6.78 17.52,-11.88 4.87,-5.1 8.63,-11.15 11.29,-18.18 2.67,-7.02 4,-14.75 4,-23.17 0,-8.4 -1.33,-16.13 -4,-23.16 -2.66,-7.03 -6.42,-13.08 -11.29,-18.14 -4.86,-5.08 -10.7,-9.01 -17.52,-11.8 z m -39.04,-11.99 c -6.8,2.79 -12.63,6.72 -17.48,11.8 -4.86,5.06 -8.62,11.11 -11.29,18.14 -2.67,7.03 -3.99,14.76 -3.99,23.16 0,8.42 1.32,16.15 3.99,23.17 2.67,7.03 6.43,13.08 11.29,18.18 4.85,5.1 10.68,9.06 17.48,11.88 l 6.2,-11.98 c -4.92,-2.05 -9.11,-4.96 -12.59,-8.75 -3.47,-3.78 -6.16,-8.42 -8.03,-13.91 -1.89,-5.5 -2.83,-11.68 -2.83,-18.59 0,-6.89 0.94,-13.07 2.83,-18.53 1.87,-5.46 4.56,-10.09 8.03,-13.88 3.48,-3.79 7.67,-6.69 12.59,-8.7 l -6.2,-11.99" />
            <path id="path66" style="fill:#272a3d;fill-opacity:1;fill-rule:nonzero;stroke:none"
                d="m 4239.63,1681.71 h 33.16 c 7.11,0 13.28,-0.83 18.53,-2.47 5.25,-1.66 9.6,-3.99 13.06,-7.03 3.45,-3.02 6.02,-6.68 7.73,-10.96 1.69,-4.29 2.54,-9.08 2.54,-14.35 0,-5.23 -0.92,-10.01 -2.75,-14.35 -1.84,-4.33 -4.51,-8.07 -8.04,-11.22 -3.52,-3.12 -7.89,-5.57 -13.08,-7.32 -5.21,-1.75 -11.2,-2.63 -17.99,-2.63 h -18.04 v -42.01 h -15.12 v 73.32 l 15.12,0.19 v -19.42 h 18.04 c 4.33,0 8.15,0.57 11.48,1.73 3.31,1.14 6.12,2.76 8.38,4.81 2.28,2.07 3.99,4.54 5.14,7.42 1.14,2.87 1.73,6.03 1.73,9.48 0,7.16 -2.22,12.75 -6.63,16.77 -4.41,4.03 -11.12,6.04 -20.1,6.04 h -18.04 c 0,0 -15.12,3.17 -15.12,12" />
            <path id="path68" style="fill:#272a3d;fill-opacity:1;fill-rule:nonzero;stroke:none"
                d="m 4491.07,1678.72 4.65,-11.98 c -4.9,-2.05 -9.09,-4.96 -12.57,-8.75 -3.49,-3.78 -6.16,-8.42 -8.04,-13.91 -1.88,-5.5 -2.82,-11.68 -2.82,-18.59 0,-6.89 0.94,-13.07 2.82,-18.53 1.88,-5.46 4.55,-10.09 8.04,-13.88 3.48,-3.79 7.67,-6.69 12.57,-8.7 l -6.18,-11.99 c -6.8,2.79 -12.63,6.72 -17.48,11.8 -4.87,5.06 -8.64,11.11 -11.29,18.14 -2.67,7.03 -4.01,14.76 -4.01,23.16 0,8.42 1.34,16.15 4.01,23.17 2.65,7.03 6.42,13.08 11.29,18.18 4.85,5.1 10.68,9.06 17.48,11.88 m 39.04,-94.34 c 4.9,2.01 9.08,4.91 12.54,8.7 3.45,3.79 6.11,8.42 8,13.88 1.87,5.46 2.82,11.64 2.82,18.53 0,6.91 -0.95,13.09 -2.82,18.59 -1.89,5.49 -4.55,10.13 -8,13.91 -3.46,3.79 -7.64,6.7 -12.54,8.75 l 6.15,11.98 c 6.82,-2.82 12.66,-6.78 17.52,-11.88 4.86,-5.1 8.63,-11.15 11.29,-18.18 2.66,-7.02 4,-14.75 4,-23.17 0,-5.27 -0.54,-10.29 -1.62,-15.04 -1.07,-4.76 -2.62,-9.19 -4.65,-13.29 -2.04,-4.11 -4.53,-7.84 -7.46,-11.17 -2.92,-3.35 -6.22,-6.25 -9.87,-8.71 l 28.76,-31.12 h -12.53 c -1.88,0 -3.55,0.26 -5.02,0.79 -1.46,0.53 -2.8,1.44 -4,2.74 l -19.68,21.48 -2.89,13.21" />
            <path id="path70" style="fill:#272a3d;fill-opacity:1;fill-rule:nonzero;stroke:none"
                d="m 4786.38,1596.97 20.01,-27.6 h -13.48 c -2.78,0 -4.81,1.07 -6.12,3.21 l -22.88,31.79 c 0,0 16.76,0.02 22.47,-7.4 z m -24.24,19.96 c -4.22,-0.98 -9.97,-0.69 -12.11,-0.69 h -11.53 v -46.87 h -15.12 v 79.13 h 15.12 v -21.2 h 15.99 c 4.39,0 8.28,0.54 11.65,1.6 3.37,1.08 6.19,2.6 8.47,4.55 2.27,1.97 3.97,4.3 5.13,7.02 1.15,2.72 1.72,5.73 1.72,9.02 0,6.68 -2.19,11.72 -6.58,15.13 -4.4,3.39 -10.98,5.09 -19.76,5.09 h -16.62 c 0,0 -15.12,2.45 -15.12,12 h 31.74 c 7.11,0 13.25,-0.73 18.42,-2.16 5.18,-1.44 9.45,-3.52 12.81,-6.23 3.37,-2.73 5.88,-6.01 7.5,-9.85 1.62,-3.83 2.43,-8.13 2.43,-12.89 0,-3.97 -0.63,-7.67 -1.88,-11.13 -1.26,-3.45 -3.08,-6.54 -5.45,-9.29 -2.38,-2.74 -5.28,-5.08 -8.71,-7.02 -3.42,-1.93 -8.72,-4.24 -13.06,-5.23" />
            <path id="path72" style="fill:#272a3d;fill-opacity:1;fill-rule:nonzero;stroke:none"
                d="m 5013.27,1664.15 c -0.47,-0.79 -0.99,-1.37 -1.54,-1.77 -0.54,-0.39 -1.21,-0.59 -2,-0.59 -0.89,0 -1.93,0.45 -3.12,1.33 -1.2,0.89 -2.72,1.88 -4.52,2.95 -1.79,1.07 -3.97,2.04 -6.5,2.94 -2.54,0.89 -5.6,1.32 -9.22,1.32 -3.39,0 -6.38,-0.46 -8.96,-1.37 -2.6,-0.92 -4.76,-2.15 -6.52,-3.72 -1.75,-1.57 -3.06,-3.41 -3.95,-5.53 -0.9,-2.11 -1.34,-4.4 -1.34,-6.85 0,-3.15 0.77,-5.74 2.32,-7.8 1.54,-2.07 3.57,-3.83 6.11,-5.3 2.53,-1.46 5.41,-2.73 8.62,-3.8 3.23,-1.07 6.52,-2.17 9.89,-3.33 3.35,-1.16 6.66,-2.45 9.87,-3.87 3.21,-1.45 6.09,-3.27 8.62,-5.45 2.53,-2.2 4.57,-4.9 6.11,-8.09 1.55,-3.18 2.32,-7.11 2.32,-11.76 0,-4.9 -0.83,-9.52 -2.51,-13.82 -1.67,-4.31 -4.12,-8.07 -7.32,-11.26 -3.22,-3.18 -7.17,-5.7 -11.85,-7.52 -4.68,-1.83 -10,-2.75 -15.95,-2.75 -7.32,0 -13.95,1.32 -19.91,3.96 -5.96,2.64 -11.05,6.21 -15.29,10.71 l 4.38,7.21 c 0.43,0.57 0.94,1.05 1.54,1.45 0.6,0.39 1.26,0.59 2,0.59 0.68,0 1.45,-0.29 2.32,-0.83 0.85,-0.55 1.84,-1.24 2.93,-2.08 1.1,-0.83 2.34,-1.75 3.76,-2.75 1.41,-0.98 3.02,-1.9 4.83,-2.73 1.8,-0.84 3.85,-1.53 6.15,-2.08 2.29,-0.56 4.89,-0.83 7.76,-0.83 3.6,0 6.82,0.51 9.64,1.5 2.82,0.98 5.21,2.39 7.18,4.19 1.95,1.8 3.46,3.96 4.5,6.46 1.05,2.52 1.57,5.31 1.57,8.39 0,3.4 -0.77,6.18 -2.31,8.36 -1.55,2.16 -3.57,3.98 -6.08,5.45 -2.51,1.46 -5.39,2.69 -8.62,3.71 -3.24,1.03 -6.53,2.07 -9.87,3.14 -3.35,1.07 -6.64,2.31 -9.89,3.73 -3.24,1.41 -6.11,3.23 -8.62,5.48 -2.51,2.25 -4.53,5.06 -6.07,8.43 -1.55,3.37 -2.32,7.54 -2.32,12.5 0,3.97 0.77,7.82 2.32,11.53 1.54,3.7 3.79,6.99 6.74,9.87 2.94,2.87 6.58,5.18 10.9,6.9 4.31,1.73 9.26,2.59 14.85,2.59 6.27,0 11.98,-0.99 17.13,-2.98 5.15,-1.99 9.67,-4.86 13.6,-8.62 l -3.68,-7.21" />
            <path id="path74" style="fill:#272a3d;fill-opacity:1;fill-rule:nonzero;stroke:none"
                d="m 5194.82,1668.92 h -36.45 v 12.79 h 87.96 c 0,-8.37 -15.8,-12.79 -15.8,-12.79 h -20.57 z m 15.14,-18.45 v -81.1 h -15.14 v 81.1" />
            <path id="path76" style="fill:#272a3d;fill-opacity:1;fill-rule:nonzero;stroke:none"
                d="m 5435.81,1581.44 c 4.65,0 8.8,0.79 12.45,2.36 3.66,1.56 6.76,3.76 9.29,6.58 2.53,2.82 4.47,6.19 5.81,10.11 1.32,3.92 2,8.23 2,12.93 v 68.29 h 15.11 v -68.29 c 0,-6.47 -1.02,-12.49 -3.08,-18.02 -2.07,-5.55 -5.01,-10.33 -8.87,-14.4 -3.84,-4.04 -8.52,-7.21 -14.06,-9.51 -5.55,-2.3 -11.77,-3.46 -18.65,-3.46 -6.91,0 -13.13,1.16 -18.67,3.46 -5.54,2.3 -10.24,5.47 -14.12,9.51 -3.85,4.07 -6.81,8.85 -8.88,14.4 -2.07,5.53 -3.1,11.55 -3.1,18.02 v 68.29 h 15.13 v -68.2 c 0,-4.7 0.66,-9.02 2,-12.94 1.33,-3.92 3.27,-7.29 5.79,-10.11 2.54,-2.83 5.65,-5.03 9.34,-6.63 3.68,-1.59 7.85,-2.39 12.51,-2.39" />
            <path id="path78" style="fill:#272a3d;fill-opacity:1;fill-rule:nonzero;stroke:none"
                d="m 5727.65,1681.71 -45.78,-112.34 h -13.63 l -45.78,112.34 h 12.15 c 1.35,0 2.46,-0.35 3.29,-1.02 0.83,-0.69 1.46,-1.54 1.88,-2.59 l 31.67,-79.26 c 0.68,-1.77 1.35,-3.71 2,-5.8 0.65,-2.09 1.23,-4.28 1.76,-6.58 0.53,2.3 1.08,4.49 1.65,6.58 0.57,2.09 1.19,4.03 1.89,5.8 l 31.58,79.26 c 0.32,0.88 0.93,1.7 1.84,2.47 0.91,0.76 2.04,1.14 3.33,1.14 h 12.15" />
            <path id="path80" style="fill:#272a3d;fill-opacity:1;fill-rule:nonzero;stroke:none"
                d="m 5951.72,1615.18 -14.37,39.88 c -0.26,0.83 -0.51,1.71 -0.74,2.65 -0.24,0.94 -0.49,1.94 -0.75,2.99 -0.27,-1.05 -0.52,-2.05 -0.78,-2.99 -0.26,-0.94 -0.52,-1.82 -0.79,-2.65 l -28.6,-85.69 h -13.65 L 5857,1681.71 h 12.62 c 1.35,0 2.5,-0.35 3.41,-1.02 0.92,-0.69 1.5,-1.54 1.76,-2.59 l 23.2,-78.07 c 0.37,-1.42 0.73,-2.93 1.07,-4.55 0.34,-1.63 0.66,-3.35 0.98,-5.18 0.37,1.83 0.75,3.56 1.13,5.21 0.39,1.65 0.83,3.15 1.3,4.52 l 26.41,78.07 c 0.32,0.88 0.93,1.7 1.85,2.47 0.91,0.76 2.02,1.14 3.33,1.14 h 4.39 c 1.36,0 2.45,-0.35 3.29,-1.02 0.83,-0.69 1.47,-1.54 1.88,-2.59 l 14.24,-42.2 m 14.54,-45.21 c 0.25,1.72 0.55,3.37 0.85,4.93 0.32,1.58 0.65,3.04 1.03,4.41 l 23.27,78.07 c 0.27,0.94 0.85,1.77 1.77,2.5 0.91,0.73 2.02,1.11 3.33,1.11 h 11.84 l -35.04,-112.34 c 0,0 -7.05,4.51 -7.05,21.32" />
            <path id="path82" style="fill:#272a3d;fill-opacity:1;fill-rule:nonzero;stroke:none"
                d="m 6215.59,1658.26 14.16,21.01 c 0.42,0.73 0.92,1.32 1.49,1.77 0.58,0.44 1.26,0.67 2.05,0.67 h 14.5 l -28.76,-41.65 c -6.12,6.13 -3.44,18.2 -3.44,18.2 z m -5.04,-30.49 38.48,-58.4 h -15.05 c -1.14,0 -2.04,0.29 -2.69,0.89 -0.66,0.61 -1.2,1.27 -1.62,2 l -30.1,47.2 c -0.41,-1.25 -0.89,-2.32 -1.41,-3.22 l -29.32,-43.98 c -0.51,-0.73 -1.09,-1.39 -1.69,-2 -0.6,-0.6 -1.42,-0.89 -2.46,-0.89 h -14.12 l 38.65,57.7 -37.08,54.64 h 15.13 c 1.1,0 1.92,-0.19 2.43,-0.55 0.53,-0.37 1,-0.9 1.41,-1.57 l 39.44,-51.82" />
            <path id="path84" style="fill:#272a3d;fill-opacity:1;fill-rule:nonzero;stroke:none"
                d="m 6411.79,1627.81 -32.78,53.9 h 13.33 c 1.36,0 2.43,-0.33 3.22,-0.99 0.77,-0.65 1.47,-1.49 2.03,-2.55 l 20.13,-34.57 c 0,0 -1.72,-15.79 -5.93,-15.79 z m 13.17,-5.46 c 0,0 3.48,4.93 4.23,6.52 0.73,1.61 2.24,3.81 3.14,5.65 l 25.64,43.65 c 0.46,0.89 1.11,1.7 1.95,2.43 0.83,0.73 1.9,1.11 3.21,1.11 h 13.4 l -41.15,-67.58 v -44.76 h -15.21 v 44.76" />
            <path id="path86" style="fill:#272a3d;fill-opacity:1;fill-rule:nonzero;stroke:none"
                d="m 6674.09,1669.31 h -62.26 v 12.4 h 82.16 c 0,-8.01 -19.9,-12.4 -19.9,-12.4 z m 0.25,-23.67 -45.49,-63.89 h 64.2 v -12.38 h -84.19 v 5.96 c 0,0.83 0.14,1.62 0.43,2.35 0.3,0.73 0.65,1.43 1.06,2.11 l 46.78,65.7" />
            <path id="path88" style="fill:#272a3d;fill-opacity:1;fill-rule:nonzero;stroke:none"
                d="m 2670.34,770.379 c -4.93,2.293 -9.24,5.801 -12.89,10.5 -3.66,4.703 -6.54,10.652 -8.63,17.84 -2.09,7.179 -3.14,15.691 -3.14,25.511 0,9.821 1.05,18.34 3.14,25.559 2.09,7.211 4.97,13.18 8.63,17.91 3.65,4.731 7.96,8.231 12.89,10.543 l 6.08,-10.703 c -3.19,-1.547 -5.99,-4.098 -8.39,-7.648 -2.4,-3.559 -4.33,-8.231 -5.76,-14.059 -1.44,-5.832 -2.16,-13.031 -2.16,-21.602 0,-8.582 0.72,-15.761 2.16,-21.558 1.43,-5.813 3.36,-10.481 5.76,-14.031 2.4,-3.559 5.2,-6.102 8.39,-7.649 z m 25.99,10.613 c 3.19,1.547 6,4.09 8.42,7.649 2.44,3.55 4.37,8.218 5.81,14.031 1.43,5.797 2.15,12.976 2.15,21.558 0,8.571 -0.72,15.77 -2.15,21.602 -1.44,5.828 -3.37,10.5 -5.81,14.059 -2.42,3.55 -5.23,6.101 -8.42,7.648 l 6.07,10.703 c 4.99,-2.312 9.32,-5.812 12.98,-10.543 3.66,-4.73 6.55,-10.699 8.66,-17.91 2.12,-7.219 3.18,-15.738 3.18,-25.559 0,-9.82 -1.06,-18.332 -3.18,-25.511 -2.11,-7.188 -5,-13.137 -8.66,-17.84 -3.66,-4.699 -7.99,-8.207 -12.98,-10.5 l -6.07,10.613" />
            <path id="path90" style="fill:#272a3d;fill-opacity:1;fill-rule:nonzero;stroke:none"
                d="m 2910.03,862.332 -19.99,-17.172 c -0.68,-0.578 -1.36,-0.918 -2.04,-1.058 -0.68,-0.133 -1.31,-0.141 -1.88,-0.032 -0.58,0.102 -1.11,0.301 -1.61,0.621 -0.5,0.321 -0.88,0.661 -1.13,1.02 l -4.4,6.031 33.48,28.93 h 11.36 c 0,-8.543 -13.79,-18.34 -13.79,-18.34 z m 13.79,0 V 778.77 h 22.11 v -10.668 h -60.21 v 10.668 h 24.07 v 71.039 l 14.03,12.523" />
            <path id="path92" style="fill:#272a3d;fill-opacity:1;fill-rule:nonzero;stroke:none"
                d="m 3098.64,768.102 v 4.789 c 0,0.98 0.21,2.007 0.62,3.05 0.42,1.039 1.07,2.008 1.96,2.899 l 35.98,36.14 c 2.99,3.02 5.7,5.942 8.16,8.739 2.45,2.793 4.55,5.601 6.27,8.429 1.73,2.821 3.06,5.692 4,8.582 0.94,2.899 1.41,6 1.41,9.29 0,3.289 -0.53,6.179 -1.57,8.66 -1.04,2.48 -2.47,4.539 -4.27,6.16 -1.8,1.609 -3.94,2.832 -6.39,3.629 -2.46,0.812 -5.09,1.222 -7.91,1.222 -2.88,0 -5.52,-0.421 -7.92,-1.25 -2.41,-0.839 -4.54,-2 -6.39,-3.48 -1.86,-1.492 -3.41,-3.262 -4.67,-5.301 -1.26,-2.031 -2.14,-4.281 -2.67,-6.73 -0.62,-1.84 -1.47,-3.051 -2.55,-3.66 -1.07,-0.598 -2.57,-0.758 -4.5,-0.5 l -7.29,1.25 c 0.74,5.121 2.16,9.652 4.27,13.601 2.12,3.949 4.79,7.258 8,9.918 3.21,2.66 6.88,4.691 11.02,6.07 4.12,1.391 8.59,2.082 13.39,2.082 4.76,0 9.2,-0.699 13.33,-2.109 4.13,-1.41 7.71,-3.473 10.75,-6.16 3.02,-2.692 5.4,-5.973 7.13,-9.84 1.72,-3.871 2.59,-8.262 2.59,-13.172 0,-4.172 -0.64,-8.058 -1.88,-11.629 -1.26,-3.601 -2.96,-7 -5.1,-10.242 -2.14,-3.238 -4.61,-6.398 -7.42,-9.48 -2.78,-3.09 -5.75,-6.188 -8.88,-9.34 l -29.64,-30.25 c 0,0 -10.29,-11.367 -19.83,-11.367 z m 42.41,13.238 h 27.59 c 1.51,0 2.71,-0.442 3.61,-1.32 0.89,-0.891 1.33,-2.04 1.33,-3.45 v -8.468 h -43.03 c 0,7.546 10.5,13.238 10.5,13.238" />
            <path id="path94" style="fill:#272a3d;fill-opacity:1;fill-rule:nonzero;stroke:none"
                d="m 3380.96,842.57 c 0.97,2.41 1.44,5.071 1.44,7.989 0,3.261 -0.5,6.082 -1.51,8.48 -1.03,2.391 -2.42,4.383 -4.2,5.949 -1.78,1.571 -3.89,2.742 -6.31,3.532 -2.43,0.789 -5.06,1.171 -7.88,1.171 -2.82,0 -5.44,-0.421 -7.88,-1.25 -2.43,-0.839 -4.57,-2 -6.43,-3.48 -1.85,-1.492 -3.4,-3.262 -4.66,-5.301 -1.26,-2.031 -2.15,-4.281 -2.67,-6.73 -0.68,-1.84 -1.52,-3.051 -2.55,-3.66 -1.02,-0.598 -2.49,-0.758 -4.43,-0.5 l -7.28,1.25 c 0.73,5.121 2.14,9.652 4.23,13.601 2.09,3.949 4.75,7.258 7.95,9.918 3.21,2.66 6.9,4.691 11.06,6.07 4.15,1.391 8.64,2.082 13.44,2.082 4.75,0 9.15,-0.679 13.18,-2.031 4.02,-1.371 7.48,-3.301 10.38,-5.82 2.9,-2.5 5.16,-5.52 6.77,-9.078 1.64,-3.551 2.45,-7.512 2.45,-11.832 0,-3.559 -0.46,-6.739 -1.39,-9.52 -0.9,-2.808 -2.21,-5.262 -3.91,-7.351 z m -3.89,-14.898 c 4.69,-1.024 12.28,-5.652 15.96,-10.223 3.69,-4.57 5.53,-10.289 5.53,-17.129 0,-5.168 -0.99,-9.828 -2.94,-13.961 -1.96,-4.129 -4.64,-7.629 -8.03,-10.527 -3.4,-2.902 -7.36,-5.133 -11.88,-6.66 -4.53,-1.551 -9.37,-2.332 -14.54,-2.332 -5.96,0 -11.06,0.742 -15.29,2.242 -4.23,1.488 -7.81,3.539 -10.74,6.148 -2.93,2.622 -5.33,5.711 -7.21,9.29 -1.88,3.582 -3.48,7.472 -4.79,11.652 l 6.04,2.5 c 1.57,0.68 3.11,0.867 4.59,0.547 1.49,-0.309 2.57,-1.18 3.25,-2.578 0.68,-1.469 1.53,-3.219 2.55,-5.262 1.02,-2.039 2.41,-4 4.2,-5.879 1.77,-1.879 4.03,-3.469 6.78,-4.781 2.74,-1.309 6.23,-1.949 10.46,-1.949 3.92,0 7.36,0.628 10.3,1.91 2.96,1.281 5.42,2.941 7.38,4.98 1.96,2.039 3.43,4.32 4.43,6.82 0.99,2.508 1.49,4.989 1.49,7.45 0,3.031 -0.4,5.8 -1.18,8.312 -0.78,2.508 -2.25,4.668 -4.39,6.5 -2.14,1.828 -5.09,3.258 -8.82,4.317 -3.74,1.031 -8.53,1.562 -14.38,1.562 v 10.121 c 14.72,-0.512 21.23,-3.07 21.23,-3.07" />
            <path id="path96" style="fill:#272a3d;fill-opacity:1;fill-rule:nonzero;stroke:none"
                d="m 3611,808.629 h 17 v -8 c 0,-0.828 -0.24,-1.539 -0.74,-2.109 -0.49,-0.579 -1.27,-0.868 -2.31,-0.868 H 3611 v -29.55 h -12.23 v 29.55 h -49.86 c -1.05,0 -1.95,0.309 -2.71,0.907 -0.75,0.589 -1.24,1.339 -1.44,2.23 l -1.41,7.141 54.63,72.5 H 3611 l -11.6,-16.071 -40.93,-55.73 h 40.3 12.23" />
            <path id="path98" style="fill:#272a3d;fill-opacity:1;fill-rule:nonzero;stroke:none"
                d="m 3816.12,839.91 c 4.32,0 6.11,-0.859 10.6,-2.59 4.5,-1.73 8.24,-4.101 11.25,-7.129 3,-3.031 5.28,-6.621 6.82,-10.742 1.54,-4.129 2.31,-8.629 2.31,-13.488 0,-5.949 -1.03,-11.332 -3.1,-16.152 -2.06,-4.797 -4.91,-8.918 -8.53,-12.34 -3.64,-3.43 -7.92,-6.059 -12.83,-7.879 -4.91,-1.828 -10.21,-2.75 -15.91,-2.75 -3.29,0 -6.45,0.332 -9.48,0.992 -3.04,0.637 -5.88,1.52 -8.51,2.629 -2.65,1.09 -5.08,2.348 -7.33,3.758 -2.25,1.41 -4.23,2.902 -5.95,4.461 l 4.3,5.961 c 0.94,1.351 2.17,2.05 3.68,2.05 1.05,0 2.23,-0.421 3.54,-1.23 1.3,-0.801 2.9,-1.699 4.78,-2.699 1.88,-1 4.09,-1.891 6.62,-2.703 2.53,-0.817 5.55,-1.219 9.05,-1.219 3.92,0 7.45,0.629 10.58,1.879 3.15,1.25 5.83,3.051 8.08,5.371 2.26,2.32 3.96,5.109 5.18,8.351 1.2,3.231 1.79,6.879 1.79,10.899 0,3.5 -0.5,6.66 -1.51,9.48 -1.04,2.821 -2.57,5.239 -4.63,7.211 -2.07,1.989 -4.65,3.528 -7.72,4.629 -3.08,1.102 -10.82,1.649 -10.82,1.649 0,5.461 7.74,11.601 7.74,11.601 z m -23.57,-14.418 -11.14,2.43 9.02,52.508 h 53.22 v -6.121 c 0,-1.969 -0.61,-3.61 -1.84,-4.887 -1.23,-1.281 -3.33,-1.91 -6.31,-1.91 h -35.28 l -5.17,-29.481" />
            <path id="path100" style="fill:#272a3d;fill-opacity:1;fill-rule:nonzero;stroke:none"
                d="m 4048.85,836.648 c 0,0 2.68,-0.468 6.7,-1.957 4.03,-1.48 7.54,-3.66 10.55,-6.5 3,-2.839 5.39,-6.359 7.18,-10.5 1.77,-4.16 2.65,-8.902 2.65,-14.23 0,-5.18 -0.94,-9.992 -2.82,-14.422 -1.88,-4.449 -4.51,-8.32 -7.88,-11.609 -3.36,-3.289 -7.42,-5.879 -12.15,-7.77 -4.73,-1.871 -9.94,-2.82 -15.63,-2.82 -5.65,0 -10.77,0.898 -15.37,2.711 -4.6,1.801 -8.51,4.359 -11.72,7.679 -3.22,3.321 -5.71,7.352 -7.45,12.079 -1.75,4.722 -2.63,10.011 -2.63,15.871 0,4.902 1.08,10.152 3.26,15.718 2.17,5.563 5.63,11.512 10.38,17.832 l 28.55,38.34 c 0.72,0.93 1.73,1.739 3,2.391 1.29,0.648 2.76,0.969 4.43,0.969 h 12.39 l -33.31,-42.09 c -1,-1.25 -1.94,-2.469 -2.86,-3.649 -0.92,-1.179 -3.4,-5.449 -4.23,-6.601 l -3.61,-7.039 c -1.03,-2.481 -2.09,-5.231 -3.48,-8.781 -1.12,-2.86 -1.11,-6.43 -1.11,-9.52 0,-3.609 0.53,-6.898 1.57,-9.871 1.04,-2.988 2.58,-5.547 4.59,-7.699 2,-2.141 4.46,-3.789 7.36,-4.969 2.9,-1.172 6.21,-1.762 9.92,-1.762 3.76,0 7.17,0.602 10.24,1.801 3.05,1.199 5.66,2.879 7.82,5.02 2.18,2.14 3.86,4.679 5.02,7.609 1.18,2.922 1.77,6.109 1.77,9.551 0,3.672 -0.58,6.968 -1.72,9.922 -1.16,2.957 -2.79,5.457 -4.9,7.527 -2.12,2.062 -4.64,3.652 -7.57,4.75 -2.93,1.09 -9.65,1.641 -9.65,1.641 0,8.41 10.71,10.378 10.71,10.378" />
            <path id="path102" style="fill:#272a3d;fill-opacity:1;fill-rule:nonzero;stroke:none"
                d="m 4276.15,847.609 6.81,13.153 c 0.69,1.308 1.38,2.508 2.11,3.597 0.74,1.102 1.53,2.153 2.36,3.153 h -58.64 c -0.88,0 -1.67,0.347 -2.35,1.047 -0.68,0.703 -1.02,1.511 -1.02,2.39 v 9.481 h 76.29 v -6.258 c 0,-1.781 -0.21,-3.25 -0.6,-4.391 -0.39,-1.16 -0.77,-2.129 -1.13,-2.91 l -9.69,-19.262 z m 6.16,-17.007 -28.91,-57.571 c -0.67,-1.351 -1.62,-2.511 -2.82,-3.48 -1.2,-0.969 -2.79,-1.449 -4.77,-1.449 h -10.04 l 26.9,53.078 c 0,0 7.63,9.422 19.64,9.422" />
            <path id="path104" style="fill:#272a3d;fill-opacity:1;fill-rule:nonzero;stroke:none"
                d="m 4485.14,830.082 c 4.54,0.797 9.19,2.398 11.79,3.52 2.59,1.109 4.69,2.617 6.31,4.457 1.62,1.863 2.8,4 3.53,6.39 0.72,2.403 1.1,4.891 1.1,7.449 0,2.614 -0.43,5.071 -1.3,7.364 -0.86,2.308 -2.14,4.32 -3.85,6.047 -1.69,1.73 -3.81,3.082 -6.34,4.07 -2.54,1 -5.48,1.5 -8.83,1.5 -3.33,0 -6.27,-0.5 -8.81,-1.5 -2.54,-0.988 -4.65,-2.34 -6.35,-4.07 -1.7,-1.727 -2.98,-3.739 -3.84,-6.047 -0.87,-2.293 -1.3,-4.75 -1.3,-7.364 0,-2.558 0.36,-5.046 1.1,-7.449 0.73,-2.39 1.36,-3.527 2.25,-4.64 l -14.13,-0.52 c -1.61,2.813 -2.85,6.781 -2.85,12.852 0,4.129 0.81,7.988 2.43,11.609 1.61,3.59 3.91,6.73 6.9,9.398 2.97,2.672 6.54,4.762 10.69,6.262 4.16,1.52 8.8,2.281 13.91,2.281 5.08,0 9.7,-0.761 13.88,-2.281 4.18,-1.5 7.77,-3.59 10.74,-6.262 2.99,-2.668 5.29,-5.808 6.9,-9.398 1.62,-3.621 2.43,-7.48 2.43,-11.609 0,-6.071 -1.49,-11.27 -4.5,-15.641 -3.01,-4.359 -7.46,-7.648 -13.37,-9.84 7,-1.988 12.38,-5.308 16.14,-9.949 3.77,-4.652 5.66,-10.609 5.66,-17.879 0,-4.922 -0.93,-9.352 -2.79,-13.293 -1.86,-3.937 -4.44,-7.297 -7.77,-10.059 -3.31,-2.789 -7.3,-4.91 -11.95,-6.398 -4.65,-1.5 -9.77,-2.242 -15.37,-2.242 -5.58,0 -10.7,0.742 -15.35,2.242 -4.65,1.488 -8.65,3.609 -12,6.398 -3.35,2.762 -5.94,6.122 -7.76,10.059 -1.83,3.941 -2.75,8.371 -2.75,13.293 0,7.27 1.89,13.227 5.65,17.879 3.76,4.641 9.15,7.961 16.15,9.949 m 16.06,-48.68 c 3.67,0 6.95,0.512 9.85,1.532 2.9,1.008 5.36,2.449 7.37,4.308 2.01,1.86 3.56,4.078 4.62,6.66 1.08,2.59 1.61,5.442 1.61,8.59 0,3.871 -0.64,7.168 -1.92,9.91 -1.28,2.75 -3.01,4.981 -5.18,6.711 -2.17,1.719 -4.67,2.981 -7.49,3.789 -2.82,0.809 -5.77,1.219 -8.86,1.219 -3.08,0 -6.02,-0.41 -8.85,-1.219 -2.82,-0.808 -5.31,-2.07 -7.48,-3.789 -2.17,-1.73 -3.9,-3.961 -5.18,-6.711 -1.28,-2.742 -1.92,-6.039 -1.92,-9.91 0,-3.148 0.53,-6 1.61,-8.59 1.06,-2.582 2.61,-4.8 4.62,-6.66 2.01,-1.859 4.47,-3.3 7.37,-4.308 2.9,-1.02 6.18,-1.532 9.83,-1.532" />
            <path id="path106" style="fill:#272a3d;fill-opacity:1;fill-rule:nonzero;stroke:none"
                d="m 4703.5,814.988 c -4.23,0 -4.85,-0.09 -8.64,1.332 -3.79,1.399 -7.12,3.481 -9.99,6.231 -2.88,2.738 -5.17,6.109 -6.86,10.109 -1.71,4 -2.54,8.578 -2.54,13.762 0,4.91 0.9,9.5 2.74,13.789 1.83,4.289 4.38,8.031 7.68,11.211 3.29,3.199 7.2,5.699 11.75,7.519 4.55,1.84 9.53,2.75 14.97,2.75 5.38,0 10.28,-0.882 14.67,-2.671 4.39,-1.77 8.15,-4.258 11.29,-7.438 3.14,-3.191 5.55,-7 7.25,-11.453 1.7,-4.438 2.55,-9.348 2.55,-14.738 0,-3.231 -0.31,-6.309 -0.91,-9.211 -0.61,-2.891 -1.46,-5.75 -2.58,-8.539 -1.13,-2.801 -2.5,-5.559 -4.11,-8.309 -1.63,-2.742 -3.46,-5.551 -5.5,-8.434 l -27.35,-39.507 c -0.69,-0.993 -1.64,-1.782 -2.9,-2.391 -1.26,-0.602 -2.7,-0.898 -4.31,-0.898 h -12.86 l 34.17,44.769 c 1.15,1.5 2.21,2.949 3.21,4.301 1,1.359 1.55,3.57 2.44,4.937 l 5.58,13.352 c 1.04,2.668 1.71,8.711 1.71,11.578 0,3.5 -0.56,6.68 -1.68,9.531 -1.14,2.84 -2.69,5.262 -4.67,7.25 -1.98,1.981 -4.35,3.512 -7.09,4.59 -2.74,1.059 -5.77,1.602 -9.06,1.602 -3.44,0 -6.58,-0.563 -9.41,-1.68 -2.82,-1.141 -5.24,-2.691 -7.29,-4.66 -2.03,-1.992 -3.61,-4.383 -4.7,-7.152 -1.09,-2.758 -1.64,-5.79 -1.64,-9.079 0,-3.562 0.5,-6.742 1.51,-9.531 1.04,-2.801 2.49,-5.16 4.41,-7.09 1.89,-1.949 4.23,-3.41 6.97,-4.398 2.74,-0.981 3.94,-1.32 6.74,-1.524 3.75,-0.277 6.84,0.602 6.84,0.602 -3.98,-10.609 -12.39,-10.512 -12.39,-10.512" />
            <path id="path108" style="fill:#272a3d;fill-opacity:1;fill-rule:nonzero;stroke:none"
                d="m 1084.71,1204.49 c -6.43,-0.23 -11.9,-0.72 -16.42,-1.53 -4.52,-0.81 -8.21,-1.87 -11.06,-3.18 -2.84,-1.31 -4.9,-2.85 -6.18,-4.62 -1.29,-1.78 -1.93,-3.77 -1.93,-5.96 0,-2.09 0.34,-3.89 1.02,-5.41 0.68,-1.52 1.61,-2.76 2.79,-3.72 1.17,-0.98 2.55,-1.67 4.15,-2.12 1.59,-0.44 3.31,-0.67 5.13,-0.67 2.46,0 4.71,0.25 6.74,0.74 2.04,0.5 3.96,1.22 5.77,2.16 1.8,0.95 3.52,2.06 5.17,3.37 1.64,1.31 3.26,2.79 4.82,4.46 z m -4,29.03 c -2.66,3.17 -6.56,4.75 -11.68,4.75 -3.44,0 -6.33,-0.43 -8.66,-1.29 -2.33,-0.87 -4.34,-1.84 -6.03,-2.9 -1.7,-1.08 -3.17,-2.04 -4.39,-2.91 -1.23,-0.86 -2.45,-1.29 -3.65,-1.29 -0.94,0 -1.75,0.25 -2.43,0.74 -0.68,0.5 -1.26,1.12 -1.73,1.86 l -2.5,4.45 c 4.38,4.24 9.12,7.4 14.18,9.48 5.07,2.1 10.69,3.15 16.86,3.15 4.44,0 8.39,-0.73 11.84,-2.19 3.44,-1.46 6.35,-3.52 8.7,-6.12 m 7.13,-17.28 v -55.23 h -6.19 c -1.36,0 -2.41,0.21 -3.14,0.66 -0.73,0.44 -1.3,1.33 -1.72,2.63 l -1.57,7.52 c -2.09,-1.94 -4.13,-3.64 -6.11,-5.13 -1.99,-1.49 -4.08,-2.74 -6.27,-3.76 -2.2,-1.02 -4.54,-1.81 -7.02,-2.35 -2.49,-0.56 -5.24,-0.83 -8.27,-0.83 -3.08,0 -5.99,0.44 -8.7,1.3 -2.72,0.86 -5.09,2.15 -7.1,3.87 -2.01,1.73 -3.61,3.92 -4.78,6.56 -1.17,2.63 -1.76,5.76 -1.76,9.36 0,3.14 0.86,6.15 2.58,9.05 1.73,2.9 4.52,5.48 8.39,7.72 3.87,2.25 8.91,4.09 15.13,5.54 6.22,1.43 13.85,2.24 22.89,2.47 0,0 3.09,10.62 13.64,10.62" />
            <path id="path110" style="fill:#272a3d;fill-opacity:1;fill-rule:nonzero;stroke:none"
                d="m 1267.96,1226.28 v -38.41 c 2.55,-3.45 5.37,-5.89 8.42,-7.3 3.06,-1.41 6.41,-2.12 10.07,-2.12 7.47,0 13.2,2.64 17.17,7.92 3.97,5.28 5.96,13.15 5.96,23.6 0,9.71 -1.77,16.87 -5.3,21.44 -3.52,4.57 -9.52,8.31 -19.74,5.52 0,0 7.27,14.53 21.86,9.81 3.94,-1.28 6.91,-4.36 9.53,-7.73 2.61,-3.37 4.61,-7.45 6,-12.27 1.38,-4.8 2.08,-10.21 2.08,-16.22 0,-6.43 -0.8,-12.28 -2.36,-17.56 -1.57,-5.28 -3.83,-9.79 -6.78,-13.53 -2.95,-3.73 -6.54,-6.63 -10.78,-8.69 -4.24,-2.07 -8.99,-3.1 -14.27,-3.1 -5.22,0 -9.63,0.98 -13.2,2.93 -3.59,1.98 -6.71,4.75 -9.38,8.36 l -0.7,-7.22 c -0.42,-1.98 -1.62,-2.97 -3.6,-2.97 h -9.02 v 115.47 h 14.04 v -47.5 -10.43" />
            <path id="path112" style="fill:#272a3d;fill-opacity:1;fill-rule:nonzero;stroke:none"
                d="m 1531.19,1234.04 c -0.42,-0.59 -0.84,-1.02 -1.25,-1.34 -0.43,-0.31 -1,-0.47 -1.73,-0.47 -0.78,0 -1.65,0.34 -2.59,0.99 -0.94,0.64 -2.1,1.37 -3.49,2.15 -1.38,0.78 -3.08,1.5 -5.09,2.16 -2.01,0.65 -4.48,0.98 -7.41,0.98 -3.92,0 -7.37,-0.7 -10.34,-2.08 -2.98,-1.38 -5.48,-3.39 -7.5,-6 -2.01,-2.61 -3.52,-5.77 -4.54,-9.49 -1.02,-3.7 -1.53,-7.86 -1.53,-12.46 0,-4.81 0.55,-9.08 1.64,-12.82 1.1,-3.74 2.66,-6.86 4.67,-9.4 2.01,-2.54 4.45,-4.48 7.29,-5.8 2.85,-1.33 6.05,-2.01 9.61,-2.01 3.39,0 6.19,0.41 8.39,1.22 2.19,0.82 4,1.7 5.44,2.7 1.44,1 2.64,1.89 3.61,2.71 0.96,0.82 1.92,1.22 2.86,1.22 1.15,0 2.04,-0.44 2.66,-1.33 l 3.92,-5.1 c -1.72,-2.15 -3.68,-3.97 -5.87,-5.49 -2.2,-1.52 -4.56,-2.78 -7.1,-3.81 -2.54,-1.01 -5.19,-1.75 -7.96,-2.22 -2.76,-0.48 -5.59,-0.71 -8.46,-0.71 -4.97,0 -9.58,0.91 -13.84,2.75 -4.26,1.82 -7.95,4.47 -11.09,7.95 -3.13,3.47 -5.6,7.74 -7.37,12.82 -1.77,5.07 -2.67,10.85 -2.67,17.32 0,5.9 0.83,11.37 2.48,16.38 1.64,5.02 4.04,9.35 7.21,12.98 3.16,3.63 7.05,6.46 11.68,8.5 4.62,2.05 9.94,3.06 15.95,3.06 5.59,0 10.51,-0.91 14.77,-2.69 4.26,-1.81 8.04,-4.36 11.33,-7.65 l -3.68,-5.02" />
            <path id="path114" style="fill:#272a3d;fill-opacity:1;fill-rule:nonzero;stroke:none"
                d="m 1750.68,1204.46 v -35.72 h -8.31 c -1.98,0 -3.23,0.95 -3.76,2.9 l -1.25,9.64 c -3.4,-4.08 -7.27,-7.37 -11.6,-9.88 -4.34,-2.51 -9.36,-3.76 -15.05,-3.76 -4.55,0 -8.68,0.87 -12.39,2.63 -3.71,1.75 -6.87,4.32 -9.49,7.72 -2.61,3.38 -4.62,7.62 -6.03,12.69 -1.41,5.07 -2.12,10.9 -2.12,17.49 0,5.85 0.79,11.3 2.35,16.34 1.58,5.05 3.82,9.42 6.75,13.13 2.92,3.71 6.52,6.62 10.77,8.74 4.27,2.11 9.06,3.18 14.39,3.18 4.86,0 9.03,-0.82 12.5,-2.47 3.48,-1.64 6.58,-3.93 9.29,-6.86 v 43.98 h 13.95 v -66.43 l -13.95,-0.16 v 11.63 c -2.61,3.51 -5.43,5.94 -8.46,7.34 -3.04,1.38 -6.43,2.07 -10.2,2.07 -7.36,0 -13.04,-2.65 -17.01,-7.91 -3.97,-5.28 -5.95,-12.81 -5.95,-22.58 0,-5.18 0.44,-9.61 1.33,-13.28 0.89,-3.69 2.19,-6.73 3.92,-9.1 1.73,-2.38 3.84,-4.11 6.35,-5.22 2.51,-1.09 5.36,-1.64 8.54,-1.64 4.6,0 8.61,1.04 12.04,3.14 3.42,2.09 6.56,5.04 9.44,8.85 0,0 6.19,13.54 13.95,13.54" />
            <path id="path116" style="fill:#272a3d;fill-opacity:1;fill-rule:nonzero;stroke:none"
                d="m 1936.33,1217.11 h 23.82 c 0,3.24 -0.46,6.2 -1.37,8.89 -0.91,2.69 -2.25,5.02 -4,6.98 -1.75,1.96 -3.88,3.47 -6.39,4.55 -2.5,1.07 -5.36,1.61 -8.54,1.61 -6.69,0 -11.98,-1.96 -15.87,-5.84 -3.9,-3.9 -6.32,-9.3 -7.25,-16.19 l -0.48,-8.7 c 0.16,-5.02 0.85,-9.39 2.08,-13.1 1.23,-3.7 2.94,-6.81 5.13,-9.29 2.2,-2.48 4.81,-4.33 7.85,-5.56 3.03,-1.23 6.42,-1.85 10.19,-1.85 3.49,0 6.51,0.41 9.05,1.21 2.53,0.81 4.71,1.69 6.55,2.63 1.83,0.95 3.35,1.81 4.58,2.63 1.23,0.82 2.29,1.22 3.17,1.22 1.15,0 2.04,-0.44 2.67,-1.33 l 3.92,-5.1 c -1.73,-2.09 -3.79,-3.91 -6.19,-5.45 -2.41,-1.54 -4.98,-2.81 -7.72,-3.8 -2.75,-0.99 -5.58,-1.75 -8.51,-2.23 -2.93,-0.5 -5.83,-0.75 -8.7,-0.75 -5.48,0 -10.54,0.93 -15.17,2.78 -4.63,1.86 -8.63,4.57 -11.99,8.16 -3.38,3.58 -6,8.01 -7.88,13.28 -1.89,5.28 -2.82,11.34 -2.82,18.2 0,5.52 0.84,10.7 2.55,15.51 1.69,4.81 4.13,8.98 7.32,12.5 3.19,3.54 7.09,6.3 11.68,8.31 4.6,2.02 9.78,3.02 15.53,3.02 4.75,0 9.16,-0.8 13.2,-2.39 4.05,-1.6 7.55,-3.9 10.51,-6.91 2.95,-2.99 5.26,-6.7 6.94,-11.12 1.67,-4.41 2.51,-9.44 2.51,-15.09 0,-2.19 -0.24,-3.66 -0.71,-4.39 -0.47,-0.73 -1.36,-1.09 -2.67,-1.09 h -42.27 c 0,0 3.29,8.7 9.28,8.7" />
            <path id="path118" style="fill:#272a3d;fill-opacity:1;fill-rule:nonzero;stroke:none"
                d="m 2129.17,1168.74 v 67.5 l -8.78,1.01 c -1.1,0.27 -2,0.67 -2.71,1.21 -0.71,0.55 -1.06,1.35 -1.06,2.41 v 5.71 h 12.55 v 7.67 c 0,4.56 0.63,8.59 1.92,12.12 1.27,3.53 3.1,6.52 5.48,8.94 2.38,2.43 5.24,4.28 8.59,5.53 3.34,1.25 7.11,1.87 11.28,1.87 3.56,0 6.83,-0.52 9.8,-1.56 l -0.31,-6.97 c -0.1,-1.26 -0.8,-1.95 -2.08,-2.04 -1.28,-0.11 -2.99,-0.16 -5.13,-0.16 -2.41,0 -4.58,-0.31 -6.55,-0.95 -1.95,-0.62 -3.64,-1.64 -5.05,-3.04 -1.42,-1.42 -2.5,-3.28 -3.26,-5.57 -0.75,-2.31 -1.13,-5.16 -1.13,-8.56 v -7.28 h 22.89 v -10.12 h -22.42 v -67.72 h -14.03" />
            <path id="path120" style="fill:#272a3d;fill-opacity:1;fill-rule:nonzero;stroke:none"
                d="m 2363.09,1164.43 c 0,1.93 -0.55,3.5 -1.65,4.7 -1.1,1.2 -2.58,2.15 -4.43,2.82 -1.86,0.68 -4.02,1.16 -6.47,1.45 -2.45,0.29 -5.06,0.51 -7.79,0.66 -2.75,0.17 -5.54,0.32 -8.35,0.47 -2.83,0.16 -5.55,0.43 -8.16,0.79 -2.92,-1.36 -5.32,-3.08 -7.17,-5.13 -1.86,-2.07 -2.78,-4.48 -2.78,-7.25 0,-1.78 0.45,-3.44 1.37,-4.98 0.91,-1.54 2.31,-2.88 4.19,-4 1.88,-1.12 4.25,-2.01 7.1,-2.66 2.84,-0.67 6.2,-0.98 10.07,-0.98 3.76,0 7.13,0.34 10.11,1.01 2.98,0.69 5.5,1.65 7.57,2.91 2.06,1.25 3.64,2.74 4.74,4.46 1.1,1.73 1.65,3.64 1.65,5.73 z m -25.17,75.02 c -5.64,0 -9.94,-1.45 -12.89,-4.32 -2.95,-2.88 -4.43,-6.73 -4.43,-11.6 0,-2.35 0.37,-4.51 1.13,-6.46 0.76,-1.97 1.87,-3.65 3.33,-5.06 1.46,-1.41 3.27,-2.51 5.42,-3.29 2.14,-0.78 4.62,-1.18 7.44,-1.18 2.82,0 5.3,0.4 7.45,1.18 2.14,0.78 3.94,1.88 5.41,3.29 1.46,1.41 2.56,3.09 3.29,5.06 0.73,1.95 1.1,4.11 1.1,6.46 l 12.46,0.39 c 0,-3.85 -0.74,-7.38 -2.23,-10.54 -1.49,-3.16 -3.54,-5.86 -6.16,-8.12 -2.61,-2.24 -5.75,-3.96 -9.4,-5.17 -3.66,-1.21 -7.63,-1.8 -11.92,-1.8 -3.71,0 -7.21,0.45 -10.5,1.33 -1.68,-1.04 -2.96,-2.15 -3.85,-3.32 -0.88,-1.19 -1.33,-2.38 -1.33,-3.58 0,-1.88 0.77,-3.3 2.32,-4.27 1.54,-0.97 3.56,-1.66 6.07,-2.08 2.51,-0.42 5.37,-0.67 8.59,-0.78 3.21,-0.11 6.5,-0.27 9.87,-0.51 3.37,-0.24 6.66,-0.64 9.88,-1.22 3.21,-0.57 6.08,-1.51 8.59,-2.82 2.5,-1.31 4.53,-3.1 6.07,-5.4 1.54,-2.31 2.31,-5.28 2.31,-8.93 0,-3.41 -0.85,-6.7 -2.55,-9.9 -1.7,-3.18 -4.14,-6.01 -7.32,-8.49 -3.19,-2.48 -7.1,-4.48 -11.73,-5.96 -4.62,-1.49 -9.84,-2.24 -15.64,-2.24 -5.8,0 -10.87,0.57 -15.2,1.72 -4.34,1.16 -7.95,2.71 -10.82,4.63 -2.87,1.94 -5.03,4.16 -6.47,6.7 -1.44,2.54 -2.15,5.19 -2.15,7.97 0,3.91 1.22,7.24 3.68,9.95 2.46,2.71 5.83,4.88 10.11,6.5 -2.35,1.06 -4.22,2.45 -5.6,4.19 -1.38,1.76 -2.08,4.13 -2.08,7.1 0,1.15 0.21,2.34 0.63,3.57 0.41,1.23 1.05,2.46 1.92,3.68 0.86,1.23 1.92,2.39 3.17,3.49 1.26,1.11 2.72,2.07 4.39,2.9 -3.92,2.19 -6.98,5.1 -9.17,8.75 -2.19,3.63 -3.29,7.85 -3.29,12.65 0,3.87 0.74,7.39 2.24,10.54 1.48,3.16 3.56,5.87 6.23,8.09 2.66,2.21 5.84,3.92 9.52,5.12 3.68,1.2 7.72,1.81 12.11,1.81 3.45,0 9.64,-1.13 9.64,-1.13 0,-4.51 -9.64,-8.9 -9.64,-8.9 z m 21.67,5.56 h 17.69 v -5.18 c 0,-1.72 -1.1,-2.82 -3.29,-3.29 l -21.28,-1.17 c 0,8.14 6.88,9.64 6.88,9.64" />
            <path id="path122" style="fill:#272a3d;fill-opacity:1;fill-rule:nonzero;stroke:none"
                d="m 2540.02,1227.21 v -58.47 h -14.04 v 115.47 h 14.04 v -46.64 m 25.55,11.83 c 2.64,0 8.16,-0.72 11.48,-2.15 3.32,-1.44 6.09,-3.48 8.31,-6.11 2.22,-2.65 3.9,-5.82 5.06,-9.53 1.15,-3.72 1.72,-7.82 1.72,-12.32 v -50.55 h -14.03 v 50.55 c 0,6.02 -1.37,10.68 -4.11,14.01 -2.75,3.31 -6.92,4.97 -12.5,4.97 -4.14,0 -9.76,-2.07 -9.76,-2.07 0,7.91 11.19,13.2 13.83,13.2" />
            <path id="path124" style="fill:#272a3d;fill-opacity:1;fill-rule:nonzero;stroke:none"
                d="m 2762.41,1248.14 v -79.4 h -13.95 v 79.4 z m 2.98,24.94 c 0,-1.36 -0.28,-2.63 -0.82,-3.81 -0.56,-1.18 -1.29,-2.21 -2.2,-3.13 -0.91,-0.91 -1.99,-1.63 -3.21,-2.16 -1.23,-0.53 -2.53,-0.79 -3.89,-0.79 -1.36,0 -2.62,0.26 -3.79,0.79 -1.18,0.53 -2.22,1.25 -3.1,2.16 -0.89,0.92 -1.6,1.95 -2.12,3.13 -0.52,1.18 -0.79,2.45 -0.79,3.81 0,1.36 0.27,2.65 0.79,3.87 0.52,1.24 1.23,2.3 2.12,3.21 0.88,0.92 1.92,1.64 3.1,2.16 1.17,0.53 2.43,0.79 3.79,0.79 1.36,0 2.66,-0.26 3.89,-0.79 1.22,-0.52 2.3,-1.24 3.21,-2.16 0.91,-0.91 1.64,-1.97 2.2,-3.21 0.54,-1.22 0.82,-2.51 0.82,-3.87" />
            <path id="path126" style="fill:#272a3d;fill-opacity:1;fill-rule:nonzero;stroke:none"
                d="m 2937.14,1273.08 c 0,-1.36 -0.27,-2.63 -0.83,-3.81 -0.54,-1.18 -1.27,-2.21 -2.19,-3.13 -0.91,-0.91 -1.97,-1.63 -3.17,-2.16 -1.21,-0.53 -2.49,-0.79 -3.84,-0.79 -1.36,0 -2.63,0.26 -3.8,0.79 -1.18,0.53 -2.21,1.25 -3.1,2.16 -0.89,0.92 -1.6,1.95 -2.12,3.13 -0.52,1.18 -0.78,2.45 -0.78,3.81 0,1.36 0.26,2.65 0.78,3.87 0.52,1.24 1.23,2.3 2.12,3.21 0.89,0.92 1.92,1.64 3.1,2.16 1.17,0.53 2.44,0.79 3.8,0.79 1.35,0 2.63,-0.26 3.84,-0.79 1.2,-0.52 2.26,-1.24 3.17,-2.16 0.92,-0.91 1.65,-1.97 2.19,-3.21 0.56,-1.22 0.83,-2.51 0.83,-3.87 z m -2.9,-24.94 v -85.29 c 0,-3.19 -0.42,-6.14 -1.26,-8.89 -0.83,-2.74 -2.16,-5.13 -3.99,-7.18 -1.84,-2.03 -4.17,-3.64 -7.02,-4.82 -2.85,-1.16 -6.26,-1.76 -10.23,-1.76 -1.67,0 -3.21,0.14 -4.62,0.39 -1.42,0.27 -2.83,0.65 -4.24,1.17 l 0.55,7.53 c 0.11,0.47 0.28,0.83 0.52,1.06 0.23,0.24 0.55,0.39 0.97,0.44 0.42,0.05 0.96,0.07 1.61,0.04 0.65,-0.03 1.48,-0.04 2.47,-0.04 4.08,0 6.97,0.95 8.7,2.85 1.73,1.91 2.59,4.98 2.59,9.21 v 85.29 h 13.95" />
            <path id="path128" style="fill:#272a3d;fill-opacity:1;fill-rule:nonzero;stroke:none"
                d="m 3121.91,1227.1 17.01,18.22 c 0.73,0.89 1.5,1.59 2.31,2.08 0.81,0.5 1.9,0.74 3.25,0.74 h 12.63 l -24.57,-26.15 m -11.69,-7.37 c 2.15,-1 4.26,-3.1 5.02,-3.91 0.76,-0.81 1.47,-1.73 2.15,-2.77 l 31.05,-39.2 h -12.47 c -1.2,0 -2.23,0.19 -3.09,0.58 -0.87,0.4 -1.61,1.11 -2.24,2.16 l -26.1,32.54 c -0.79,1.09 -1.56,1.82 -2.31,2.15 -0.76,0.34 -1.93,0.51 -3.49,0.51 h -4 v -37.94 h -14.04 v 115.47 h 14.04 v -67.96 h 3.61 c 1.04,0 4.52,-0.24 7.51,-0.6 0,0 2.21,-0.05 4.36,-1.03" />
            <path id="path130" style="fill:#272a3d;fill-opacity:1;fill-rule:nonzero;stroke:none"
                d="m 3319.62,1284.21 v -115.47 h -13.96 v 115.47 h 13.96" />
            <path id="path132" style="fill:#272a3d;fill-opacity:1;fill-rule:nonzero;stroke:none"
                d="m 3490.43,1227.93 v -59.19 h -14.04 v 79.4 c 9.97,0 14.04,-20.21 14.04,-20.21 z m 8.51,18.24 c 3.23,3.25 8.32,3.23 13.12,3.23 5.33,0 9.66,-1.48 12.98,-4.47 3.32,-2.97 5.71,-7 7.17,-12.07 1.15,2.87 2.63,5.36 4.43,7.44 1.8,2.09 3.83,3.82 6.08,5.18 2.24,1.36 4.63,2.36 7.16,2.98 2.54,0.63 5.11,0.94 7.73,0.94 4.18,0 7.9,-0.66 11.17,-2 3.27,-1.33 6.04,-3.28 8.31,-5.84 2.28,-2.56 4.01,-5.7 5.21,-9.44 1.2,-3.73 1.81,-8.01 1.81,-12.83 v -50.55 h -14.04 v 50.55 c 0,6.22 -1.36,10.94 -4.08,14.15 -2.71,3.22 -6.63,4.83 -11.75,4.83 -2.31,0 -4.49,-0.4 -6.55,-1.21 -2.06,-0.81 -3.88,-2 -5.44,-3.57 -1.57,-1.58 -2.82,-3.54 -3.73,-5.91 -0.92,-2.39 -1.37,-5.14 -1.37,-8.29 v -50.55 h -14.03 v 50.55 c 0,6.38 -1.29,11.14 -3.85,14.28 -2.55,3.14 -6.3,4.7 -11.21,4.7" />
            <path id="path134" style="fill:#272a3d;fill-opacity:1;fill-rule:nonzero;stroke:none"
                d="m 3764.36,1245.91 c 2.17,1.13 4.47,1.99 6.91,2.58 2.43,0.61 5.04,0.91 7.87,0.91 4.34,0 8.17,-0.72 11.48,-2.15 3.33,-1.44 6.1,-3.48 8.31,-6.11 2.23,-2.65 3.91,-5.82 5.07,-9.53 1.14,-3.72 1.72,-7.82 1.72,-12.32 v -50.55 h -14.03 v 50.55 c 0,6.02 -1.37,10.68 -4.12,14.01 -2.74,3.31 -6.91,4.97 -12.5,4.97 m -21.48,-11.06 v -58.47 h -14.04 v 79.4 c 10.56,0 14.04,-20.93 14.04,-20.93" />
            <path id="path136" style="fill:#272a3d;fill-opacity:1;fill-rule:nonzero;stroke:none"
                d="m 3978.92,1170.49 c -4.68,1.92 -8.66,4.64 -11.95,8.2 -3.29,3.55 -5.82,7.84 -7.57,12.86 -1.75,5.02 -2.62,10.66 -2.62,16.93 0,6.22 0.87,11.86 2.62,16.9 1.75,5.04 4.28,9.33 7.57,12.89 3.29,3.55 7.27,6.3 11.95,8.23 l 5.41,-10.12 c -2.96,-1.34 -5.41,-3.32 -7.36,-5.88 -1.97,-2.55 -3.43,-5.71 -4.4,-9.43 -0.96,-3.74 -1.44,-7.97 -1.44,-12.66 0,-9.41 1.94,-16.74 5.84,-22 1.94,-2.62 4.39,-4.6 7.35,-5.91 z m 24.32,9.33 c 3.72,1.26 6.73,3.46 9.04,6.59 3.86,5.26 5.79,12.59 5.79,22 0,9.45 -1.93,16.82 -5.79,22.09 -2.26,3.1 -5.21,5.29 -8.84,6.57 l 6.96,9.43 c 4.65,-1.93 8.62,-4.68 11.91,-8.23 3.29,-3.56 5.82,-7.85 7.57,-12.89 1.75,-5.04 2.63,-10.68 2.63,-16.9 0,-6.27 -0.88,-11.91 -2.63,-16.93 -1.75,-5.02 -4.28,-9.31 -7.57,-12.86 -3.29,-3.56 -7.26,-6.28 -11.91,-8.2 l -7.16,9.33" />
            <path id="path138" style="fill:#272a3d;fill-opacity:1;fill-rule:nonzero;stroke:none"
                d="m 4198.39,1226.28 v -38.41 c 2.55,-3.45 5.35,-5.89 8.37,-7.3 3.04,-1.41 6.43,-2.12 10.2,-2.12 7.42,0 13.11,2.64 17.09,7.92 3.97,5.28 5.96,12.82 5.96,22.58 0,5.17 -0.46,9.61 -1.38,13.33 -0.91,3.7 -2.23,6.75 -3.96,9.13 -1.71,2.38 -3.83,4.11 -6.34,5.21 -2.51,1.1 -5.36,1.65 -8.55,1.65 l -0.39,11.29 c 8.32,0.9 13.68,-0.88 17.4,-2.63 3.71,-1.75 6.87,-4.35 9.49,-7.76 2.61,-3.43 4.62,-7.67 6.03,-12.74 1.42,-5.07 2.12,-10.9 2.12,-17.48 0,-5.85 -0.78,-11.3 -2.34,-16.34 -1.59,-5.05 -3.84,-9.42 -6.79,-13.09 -2.95,-3.68 -6.56,-6.59 -10.82,-8.7 -4.26,-2.13 -9.06,-3.18 -14.39,-3.18 -4.85,0 -9.03,0.82 -12.5,2.46 -3.47,1.65 -6.55,3.94 -9.2,6.87 v -35.13 h -14.05 v 106.3 c 11.27,0 14.05,-21.86 14.05,-21.86" />
            <path id="path140" style="fill:#272a3d;fill-opacity:1;fill-rule:nonzero;stroke:none"
                d="m 4472.13,1248.14 v -106.3 h -13.95 v 38.73 c -3.29,-3.86 -7.09,-6.99 -11.38,-9.36 -4.28,-2.38 -9.16,-3.57 -14.65,-3.57 -4.55,0 -8.69,0.87 -12.39,2.63 -3.71,1.75 -6.87,4.32 -9.48,7.72 -2.62,3.38 -4.63,7.62 -6.04,12.69 -1.41,5.07 -2.12,10.9 -2.12,17.49 0,5.85 0.79,11.3 2.35,16.34 1.57,5.05 3.82,9.42 6.75,13.13 2.93,3.71 6.52,6.62 10.78,8.74 4.26,2.11 12.46,3.18 17.79,3.18 l -0.27,-10.9 c -7.37,0 -13.05,-2.65 -17.01,-7.91 -3.98,-5.28 -5.96,-12.81 -5.96,-22.58 0,-5.18 0.44,-9.61 1.33,-13.28 0.89,-3.69 2.19,-6.73 3.92,-9.1 1.72,-2.38 3.84,-4.11 6.35,-5.22 2.51,-1.09 5.35,-1.64 8.55,-1.64 4.6,0 8.61,1.04 12.03,3.14 3.42,2.09 6.57,5.04 9.45,8.85 v 38.41 c 0,0 3.92,18.81 13.95,18.81" />
            <path id="path142" style="fill:#272a3d;fill-opacity:1;fill-rule:nonzero;stroke:none"
                d="m 4642.47,1218.91 v -50.17 h -14.04 v 79.4 c 13.57,0 14.04,-29.23 14.04,-29.23 z m 8.46,26.07 c 2.92,3.42 8.13,4.58 13.41,4.58 1.67,0 3.27,-0.19 4.82,-0.55 1.54,-0.36 2.92,-0.94 4.12,-1.73 l -1.02,-10.42 c -0.32,-1.32 -1.1,-1.96 -2.35,-1.96 -0.73,0 -1.81,0.16 -3.21,0.47 -1.42,0.31 -3.01,0.48 -4.8,0.48 -2.5,0 -4.74,-0.38 -6.69,-1.12 -1.97,-0.73 -3.72,-1.81 -5.26,-3.24 0,0 -2.82,9.03 0.98,13.49" />
            <path id="path144" style="fill:#272a3d;fill-opacity:1;fill-rule:nonzero;stroke:none"
                d="m 4862.67,1235.06 c -0.63,-1.16 -1.59,-1.73 -2.9,-1.73 -0.78,0 -1.67,0.29 -2.66,0.86 -1,0.58 -2.21,1.22 -3.65,1.92 -1.44,0.7 -3.14,1.36 -5.13,1.96 -2,0.61 -4.35,0.91 -7.06,0.91 -2.35,0 -4.48,-0.3 -6.35,-0.91 -1.89,-0.6 -3.5,-1.42 -4.82,-2.47 -1.33,-1.04 -2.36,-2.25 -3.06,-3.64 -0.71,-1.39 -1.06,-2.89 -1.06,-4.5 0,-2.05 0.59,-3.74 1.76,-5.1 1.18,-1.36 2.73,-2.54 4.67,-3.53 1.94,-0.99 4.12,-1.88 6.58,-2.63 2.46,-0.75 4.98,-1.56 7.57,-2.42 2.59,-0.87 5.11,-1.82 7.56,-2.87 2.46,-1.04 4.66,-2.36 6.6,-3.92 1.92,-1.56 3.49,-3.49 4.66,-5.76 1.18,-2.28 1.76,-5 1.76,-8.2 0,-3.65 -0.65,-7.04 -1.97,-10.14 -1.3,-3.12 -3.23,-5.81 -5.79,-8.07 -2.56,-2.27 -5.7,-4.07 -9.4,-5.37 -3.72,-1.32 -8.01,-1.97 -12.86,-1.97 -5.55,0 -10.56,0.91 -15.05,2.71 -4.5,1.79 -8.31,4.11 -11.46,6.94 l 3.29,5.32 c 0.43,0.68 0.93,1.2 1.51,1.57 0.56,0.36 1.3,0.55 2.18,0.55 0.94,0 1.94,-0.37 2.99,-1.1 1.04,-0.73 2.31,-1.53 3.79,-2.43 1.49,-0.89 3.3,-1.7 5.45,-2.43 2.14,-0.73 4.82,-1.09 8.01,-1.09 2.7,0 5.08,0.35 7.13,1.06 2.03,0.69 3.73,1.65 5.09,2.85 1.36,1.2 2.37,2.59 3.02,4.16 0.65,1.57 0.97,3.24 0.97,5.02 0,2.2 -0.58,4.02 -1.76,5.44 -1.17,1.44 -2.73,2.68 -4.66,3.69 -1.93,1.02 -4.14,1.91 -6.63,2.67 -2.48,0.75 -5.02,1.55 -7.6,2.38 -2.58,0.84 -5.12,1.8 -7.6,2.87 -2.49,1.07 -4.7,2.42 -6.62,4.04 -1.94,1.62 -3.49,3.61 -4.67,5.98 -1.17,2.4 -1.76,5.28 -1.76,8.66 0,3.05 0.62,5.96 1.88,8.75 1.26,2.8 3.08,5.26 5.48,7.38 2.41,2.11 5.36,3.8 8.87,5.06 3.5,1.25 7.49,1.87 11.98,1.87 5.23,0 9.93,-0.82 14.08,-2.47 4.16,-1.64 7.74,-3.91 10.78,-6.78 l -3.14,-5.09" />
            <path id="path146" style="fill:#272a3d;fill-opacity:1;fill-rule:nonzero;stroke:none"
                d="m 5023.38,1236.46 h -9.57 c -0.84,0 -1.54,0.26 -2.11,0.74 -0.59,0.51 -0.87,1.27 -0.87,2.33 v 5.56 l 13.01,1.65 3.22,24.54 c 0.15,0.77 0.51,1.42 1.06,1.91 0.55,0.5 1.27,0.74 2.15,0.74 h 7.06 v -27.35 h 22.96 v -10.12 h -22.96 m 0,-8.44 v -39.21 c 0,-3.35 0.8,-5.83 2.42,-7.46 1.62,-1.62 3.71,-2.42 6.28,-2.42 1.46,0 2.73,0.2 3.8,0.59 1.06,0.38 2,0.82 2.78,1.29 0.78,0.47 1.45,0.9 2.01,1.29 0.54,0.4 1.02,0.59 1.44,0.59 0.73,0 1.39,-0.45 1.95,-1.34 l 4.09,-6.66 c -2.41,-2.24 -5.31,-4.01 -8.71,-5.29 -3.38,-1.28 -6.89,-1.92 -10.49,-1.92 -6.28,0 -11.1,1.75 -14.48,5.26 -3.37,3.5 -5.04,8.54 -5.04,15.13 v 27.94 c 0,0 4.4,12.21 13.95,12.21" />
            <path id="path148" style="fill:#272a3d;fill-opacity:1;fill-rule:nonzero;stroke:none"
                d="m 5238.8,1167.48 c -4.34,0 -12.25,0.72 -15.56,2.16 -3.33,1.44 -6.1,3.46 -8.36,6.07 -2.25,2.62 -3.93,5.78 -5.05,9.48 -1.13,3.72 -1.69,7.82 -1.69,12.32 v 50.63 h 13.96 v -50.63 c 0,-6.02 1.36,-10.67 4.11,-13.96 2.74,-3.29 6.94,-4.94 12.59,-4.94 m 21.48,11.05 v 58.48 h 13.95 v -79.4 c -11.06,0 -13.95,20.92 -13.95,20.92" />
            <path id="path150" style="fill:#272a3d;fill-opacity:1;fill-rule:nonzero;stroke:none"
                d="m 5494.83,1248.14 -32.38,-79.4 h -12.55 l -32.37,79.4 h 11.36 c 1.16,0 2.09,-0.28 2.83,-0.86 0.73,-0.56 1.22,-1.25 1.48,-2.03 l 20.16,-51.12 c 0.62,-1.93 1.17,-3.8 1.64,-5.65 0.47,-1.82 0.91,-3.65 1.33,-5.48 0.41,1.83 0.86,3.66 1.33,5.48 0.48,1.85 1.05,3.72 1.73,5.65 l 20.38,51.12 c 0.31,0.83 0.84,1.52 1.57,2.07 0.73,0.55 1.59,0.82 2.58,0.82 h 10.91" />
            <path id="path152" style="fill:#272a3d;fill-opacity:1;fill-rule:nonzero;stroke:none"
                d="m 5712.05,1183.47 c 0.26,1.72 0.58,3.46 0.98,5.22 0.38,1.75 0.82,3.56 1.29,5.44 l 15.52,51.12 c 0.26,0.83 0.75,1.52 1.48,2.07 0.74,0.55 1.61,0.82 2.6,0.82 h 10.5 l -25.71,-79.4 c -7.96,0 -6.66,14.73 -6.66,14.73 z m -14.62,10.65 -10.16,31.13 c -0.41,1.21 -0.75,2.42 -1.01,3.64 -0.27,1.24 -0.53,2.45 -0.79,3.66 -0.26,-1.21 -0.52,-2.42 -0.79,-3.66 -0.26,-1.22 -0.6,-2.46 -1.01,-3.71 l -17.87,-53.78 c -0.47,-1.77 -1.53,-2.66 -3.14,-2.66 h -10.51 l -25.7,79.4 h 10.97 c 1.09,0 2.02,-0.28 2.78,-0.86 0.76,-0.56 1.26,-1.25 1.52,-2.03 l 15.22,-51.12 c 0.89,-3.76 1.59,-7.32 2.11,-10.66 0.47,1.72 0.96,3.47 1.45,5.26 0.49,1.76 1.03,3.57 1.62,5.4 l 16.76,51.43 c 0.27,0.78 0.73,1.44 1.37,1.97 0.66,0.51 1.46,0.78 2.4,0.78 h 6.12 c 1.04,0 1.9,-0.27 2.58,-0.78 0.69,-0.53 1.16,-1.19 1.42,-1.97 l 10.92,-34.29 -6.26,-17.15" />
            <path id="path154" style="fill:#272a3d;fill-opacity:1;fill-rule:nonzero;stroke:none"
                d="m 5927.36,1231.85 9.44,13.87 c 0.47,0.73 0.98,1.32 1.53,1.76 0.54,0.45 1.22,0.66 2,0.66 h 12.85 l -21.51,-30.54 c -4.72,0 -4.31,14.25 -4.31,14.25 z m -1.37,-22.16 28.28,-40.95 h -13.39 c -1.15,0 -2.06,0.29 -2.71,0.9 -0.64,0.59 -1.18,1.27 -1.61,2 l -19.98,31.12 c -0.21,-0.73 -0.44,-1.45 -0.67,-2.16 -0.24,-0.71 -0.57,-1.35 -0.98,-1.92 l -18.51,-27.04 c -0.52,-0.73 -1.08,-1.41 -1.68,-2 -0.6,-0.61 -1.42,-0.9 -2.46,-0.9 h -12.47 l 27.83,40.76 -26.74,38.64 h 13.41 c 1.16,0 1.99,-0.18 2.5,-0.55 0.53,-0.36 1,-0.87 1.42,-1.56 l 21.3,-27.66" />
            <path id="path156" style="fill:#272a3d;fill-opacity:1;fill-rule:nonzero;stroke:none"
                d="m 6126.8,1187.38 c 0.74,2.46 2.47,5.73 3.31,7.93 l 20.62,49.94 c 0.31,0.83 0.85,1.52 1.6,2.07 0.76,0.55 1.61,0.82 2.55,0.82 h 11.06 l -44.29,-102.84 c -0.47,-1.06 -1.07,-1.89 -1.77,-2.52 -0.7,-0.62 -1.79,-0.94 -3.25,-0.94 h -10.34 l 14.5,31.53 m -7.04,16.05 -25.74,58.72 h 12.07 c 1.21,0 2.16,-0.29 2.87,-0.89 0.71,-0.6 1.19,-1.27 1.45,-2 l 16.64,-39.18 c 0,0 -1.11,-16.65 -7.29,-16.65" />
            <path id="path158" style="fill:#272a3d;fill-opacity:1;fill-rule:nonzero;stroke:none"
                d="m 6347.26,1237.17 h -42.72 v 10.97 h 58.86 c 0,-8.17 -16.14,-10.97 -16.14,-10.97 z m 3.83,-14.18 -32.6,-43.36 h 43.43 v -10.89 h -59.81 v 5.79 c 0,0.68 0.15,1.48 0.46,2.4 0.32,0.92 0.79,1.79 1.42,2.62 l 32.85,43.75" />
        </g>
    </g>
</svg>